<?xml version="1.0" encoding="UTF-8"?><svg id="Layer_1" xmlns="http://www.w3.org/2000/svg" viewBox="0 0 364.343 200.053"><defs><style>.cls-1{fill:none;stroke:#c1181c;stroke-miterlimit:10;stroke-width:3px;}</style></defs><path class="cls-1" d="M46.102,99.143c-4.234,.184-5.041,4.051-22,29-10.311,15.17-12.431,17.298-16,25C-.164,170.985,1.385,180.774,2.102,184.143c.86,4.041,2.147,10.083,7,13,4.63,2.783,10.384,1.445,24-4,16.849-6.738,20.242-9.57,31-14,21.745-8.953,31.214-6.989,33-13,1.805-6.074-7.08-10.721-20-26-20.819-24.621-22.128-41.386-31-41Z"/><path class="cls-1" d="M88.102,52.143c-4.465,.519-4.694,4.482-12,8-7.269,3.501-10.032,2.168-16,6-1.91,1.226-3.452,2.634-3.646,2.807-.205,.183-3.121,2.814-5.354,6.193-1.432,2.166-7.01,10.483-5,19,.722,3.059,1.892,4.039,7,11,2.927,3.988-5.926-7.873,11,16,9.263,13.065,13.894,19.597,15,21,13.168,16.704,19.752,25.056,30,27,.896,.17,8.943-.884,25-3,9.668-1.274,14.531-1.952,16-4,4.002-5.581-3.097-15.768-11-31-15.074-29.054-20.5-52.824-37.5-71.5-2.9-3.186-7.892-8.152-13.5-7.5Z"/><path class="cls-1" d="M124.102,13.143c-13.706,3.675-21.838,6.411-28,14-1.909,2.352-7.047,8.679-6,16,.94,6.574,6.121,8.731,13,17,1.301,1.564,3.728,4.628,12,21,6.88,13.619,11.664,24.292,16,34,15.882,35.557,17.949,40.334,25,46,3.747,3.011,12.465,9.815,25,10,2.474,.037,12.647-.073,22-7,4.686-3.47,8.056-7.829,13-18,7.941-16.336,8.584-24.301,14-39,1.885-5.115,1.239-2.609,16-33,13.211-27.2,16.062-34.013,14-43-2.294-9.995-9.233-16.442-11-18-6.79-5.988-14.32-7.797-21-9-24.414-4.397-47.605-2.529-65,0-11.875,1.727-20.917,4.151-39,9Z"/><path class="cls-1" d="M265.602,31.643c-5.953,2.661-3.01,7.671-13.5,31.5-1.969,4.473-7.146,14.815-17.5,35.5-3.675,7.342-3.441,6.816-4,8-7.578,16.049-6.303,18.867-13,35-4.074,9.813-6.238,12.849-4.5,15.5,1.771,2.701,5.993,2.051,18,2,15.34-.065,23.01-.097,28-2,4.614-1.759,7.264-4.05,23-24,24.501-31.062,21.912-30.372,27-34,5.855-4.175,13.906-8.384,15-16,.378-2.632,.144-7.193,0-10-.029-.557-.38-7.213-1-10-1.634-7.342-10.314-11.37-20-16-32.027-15.311-33.658-17.217-37.5-15.5Z"/><path class="cls-1" d="M323.602,88.643c-4.177,.279-8.118,4.519-16,13-9.631,10.362-10.837,14.489-20,26-12.466,15.659-20.335,20.711-18.5,24.5,1.689,3.487,8.894-.012,20,4,7.943,2.869,12.864,7.412,20,14,12.8,11.817,13.021,17.392,23,22,3.519,1.625,10.37,4.671,17,2,1.148-.462,6.133-2.644,10-11,9.692-20.941-2.053-48.909-6-58-4.963-11.432-16.23-37.386-29.5-36.5Z"/></svg>