<?xml version="1.0" encoding="UTF-8"?><svg id="Layer_1" xmlns="http://www.w3.org/2000/svg" viewBox="0 0 198.548 206.552"><defs><style>.cls-1{fill:none;stroke:#c1181c;stroke-miterlimit:10;stroke-width:2px;}</style></defs><path class="cls-1" d="M78.053,180.231c4.432,7.329,6.961,7.793,7.622,11.397,.752,4.101-1.538,8.881-4.573,11.397-5.235,4.34-13.036,2.238-21.341,0-6.165-1.661-6.29-2.767-10.671-3.256-8.303-.928-9.93,2.812-15.244,1.628-7.854-1.75-14.437-12.18-15.244-21.166-.413-4.598,.918-6.243,0-13.025-.22-1.621-.907-6.044-3.049-11.397-2.56-6.4-5.023-8.692-7.622-13.025-5.383-8.977-9.844-24.203-4.573-34.192,2.336-4.427,4.371-3.632,6.097-8.141,2.868-7.493-2.107-11.37-1.524-21.166,.528-8.885,4.762-8.069,7.622-21.166,1.957-8.963,.394-11.263,3.049-17.91,1.514-3.789,3.407-6.511,9.146-13.025C40.452,12.762,46.804,5.551,52.139,4.388c7.68-1.675,8.639,3.071,21.341,1.628,3.595-.408,8.352-1.338,13.719-1.628,5.313-.287,10.574-.005,10.574-.005,.086,.005,.071,.004,.096,.005,5.234,.264,7.858-2.585,10.671-3.256,3.461-.826,4.01,2.408,10.671,4.885,0,0,2.927,1.088,18.292,1.628h0s5.291,2.978,10.671,4.885c6.62,2.346,7.521,.995,10.671,3.256,3.462,2.485,2.889,4.487,6.097,6.513,3.836,2.422,6.8,.914,10.671,1.628,6.458,1.191,10.414,7.639,13.719,13.025,9.169,14.943,9.803,34.322,6.097,35.82-2.345,.948-4.897-5.884-12.195-6.513-3.418-.294-6.113,.924-7.622,1.628-6.384,2.978-9.109,8.514-12.195,13.025-10.418,15.229-19.64,11.019-25.914,24.423-4.06,8.674-.375,10.816-4.573,16.282-7.524,9.795-20.842,4.847-25.914,14.654-2.202,4.257-.935,7.592-4.573,11.397-3.017,3.156-4.769,1.782-9.146,4.885-5.863,4.155-4.322,7.755-10.671,13.025-4.251,3.53-6.983,3.609-7.622,6.513-.134,.609-.413,2.417,3.049,8.141Z"/><path class="cls-1" d="M18.603,40.208c4.586,.592,11.045,1.866,18.292,4.885,4.603,1.917,17.918,8.034,36.585,30.935,8.769,10.758,20.468,27.366,30.487,50.473"/><path class="cls-1" d="M15.554,58.118c5.653,.904,11.826,2.422,18.292,4.885,27.586,10.505,44.059,31.931,51.828,43.961"/><path class="cls-1" d="M10.981,93.938c7.977,1.212,17.408,3.577,27.438,8.141,29.988,13.645,46.427,38.349,53.353,50.473"/><path class="cls-1" d="M1.835,111.847c6.728-.926,14.451-1.185,22.865,0,35.64,5.018,58.087,32.321,65.547,42.333"/><path class="cls-1" d="M9.457,144.411c6.178-.704,13.385-.917,21.341,0,23.514,2.71,40.834,13.816,50.304,21.166"/><path class="cls-1" d="M17.079,159.064c4.881-.968,10.517-1.648,16.768-1.628,17.205,.054,30.964,5.385,39.633,9.769"/><path class="cls-1" d="M55.188,199.769c2.483-3.352,5.97-7.426,10.671-11.397,4.446-3.757,8.714-6.354,12.195-8.141"/><path class="cls-1" d="M75.004,6.016c9.387,8.677,20.254,20.424,30.487,35.82,18.5,27.834,26.641,55.132,30.487,73.268"/><path class="cls-1" d="M99.394,4.388c2.49,1.884,5.993,5.007,9.146,9.769,3.777,5.705,5.373,11.225,6.097,14.654"/><path class="cls-1" d="M120.735,6.016c5.79,8.158,12.937,20.11,18.292,35.82,7.281,21.36,8.038,40.241,7.622,52.102"/><path class="cls-1" d="M137.503,7.644c4.544,7.994,10.545,20.702,13.719,37.448,2.767,14.599,2.411,27.122,1.524,35.82"/><path class="cls-1" d="M158.844,15.785c3.717,5.263,12.143,18.748,12.195,37.448,.022,7.985-1.489,14.671-3.049,19.538"/><path class="cls-1" d="M174.087,23.926c2.281,2.683,7.312,9.324,9.146,19.538,1.768,9.849-.383,17.747-1.524,21.166"/><path class="cls-1" d="M44.517,199.769c.389-2.952,1.933-11.934,9.146-19.538,8.509-8.97,18.881-9.673,21.341-9.769"/></svg>