<svg xmlns="http://www.w3.org/2000/svg" width="256" height="256" viewBox="0 0 100 100"><rect width="100" height="100" rx="20" fill="#fffacd"></rect><path fill="#c1181c" d="M18.82 44.03Q20.38 44.28 21.67 45.31Q22.96 46.33 23.72 47.85Q24.48 49.36 24.48 51.09L24.48 51.09Q24.48 53.26 23.37 55.00Q22.26 56.74 20.15 57.75Q18.04 58.75 15.17 58.75L15.17 58.75L4.51 58.75L4.51 30.18L14.76 30.18Q17.67 30.18 19.72 31.14Q21.77 32.10 22.80 33.74Q23.82 35.38 23.82 37.43L23.82 37.43Q23.82 39.98 22.45 41.64Q21.07 43.30 18.82 44.03L18.82 44.03ZM8.24 33.25L8.24 42.52L14.51 42.52Q17.14 42.52 18.57 41.29Q20.01 40.06 20.01 37.88L20.01 37.88Q20.01 35.71 18.57 34.48Q17.14 33.25 14.43 33.25L14.43 33.25L8.24 33.25ZM14.84 55.68Q17.63 55.68 19.19 54.37Q20.75 53.05 20.75 50.72L20.75 50.72Q20.75 48.34 19.11 46.97Q17.47 45.59 14.72 45.59L14.72 45.59L8.24 45.59L8.24 55.68L14.84 55.68ZM28.25 47.44Q28.25 43.99 29.64 41.39Q31.04 38.79 33.48 37.35Q35.92 35.92 38.91 35.92L38.91 35.92Q41.86 35.92 44.03 37.19Q46.21 38.46 47.27 40.39L47.27 40.39L47.27 36.29L51.05 36.29L51.05 58.75L47.27 58.75L47.27 54.57Q46.17 56.54 43.97 57.83Q41.78 59.12 38.87 59.12L38.87 59.12Q35.88 59.12 33.46 57.65Q31.04 56.17 29.64 53.51Q28.25 50.84 28.25 47.44L28.25 47.44ZM47.27 47.48Q47.27 44.94 46.25 43.05Q45.22 41.16 43.48 40.16Q41.74 39.16 39.65 39.16L39.65 39.16Q37.56 39.16 35.83 40.14Q34.11 41.12 33.09 43.01Q32.06 44.90 32.06 47.44L32.06 47.44Q32.06 50.02 33.09 51.93Q34.11 53.83 35.83 54.84Q37.56 55.84 39.65 55.84L39.65 55.84Q41.74 55.84 43.48 54.84Q45.22 53.83 46.25 51.93Q47.27 50.02 47.27 47.48L47.27 47.48ZM66.63 35.92Q69.54 35.92 71.73 37.19Q73.92 38.46 74.99 40.39L74.99 40.39L74.99 36.29L78.76 36.29L78.76 59.25Q78.76 62.32 77.45 64.72Q76.14 67.12 73.70 68.47Q71.26 69.82 68.02 69.82L68.02 69.82Q63.59 69.82 60.64 67.73Q57.69 65.64 57.15 62.03L57.15 62.03L60.84 62.03Q61.46 64.08 63.39 65.33Q65.31 66.58 68.02 66.58L68.02 66.58Q71.09 66.58 73.04 64.66Q74.99 62.73 74.99 59.25L74.99 59.25L74.99 54.53Q73.88 56.50 71.71 57.81Q69.54 59.12 66.63 59.12L66.63 59.12Q63.63 59.12 61.19 57.65Q58.75 56.17 57.36 53.51Q55.97 50.84 55.97 47.44L55.97 47.44Q55.97 43.99 57.36 41.39Q58.75 38.79 61.19 37.35Q63.63 35.92 66.63 35.92L66.63 35.92ZM74.99 47.48Q74.99 44.94 73.96 43.05Q72.94 41.16 71.20 40.16Q69.45 39.16 67.36 39.16L67.36 39.16Q65.27 39.16 63.55 40.14Q61.83 41.12 60.80 43.01Q59.78 44.90 59.78 47.44L59.78 47.44Q59.78 50.02 60.80 51.93Q61.83 53.83 63.55 54.84Q65.27 55.84 67.36 55.84L67.36 55.84Q69.45 55.84 71.20 54.84Q72.94 53.83 73.96 51.93Q74.99 50.02 74.99 47.48L74.99 47.48ZM95.49 39.36L89.63 39.36L89.63 52.60Q89.63 54.24 90.32 54.92Q91.02 55.60 92.74 55.60L92.74 55.60L95.49 55.60L95.49 58.75L92.13 58.75Q89.01 58.75 87.45 57.32Q85.90 55.88 85.90 52.60L85.90 52.60L85.90 39.36L82.98 39.36L82.98 36.29L85.90 36.29L85.90 30.63L89.63 30.63L89.63 36.29L95.49 36.29L95.49 39.36Z"></path></svg>