<?xml version="1.0" encoding="UTF-8"?><svg id="Layer_1" xmlns="http://www.w3.org/2000/svg" viewBox="0 0 74.382 75.339"><defs><style>.cls-1{fill:#c1181c;}</style></defs><path class="cls-1" d="M64.64,71.856L1.87,13.595c-2.251-2.089-2.277-5.501-.058-7.621h0c2.219-2.119,5.843-2.144,8.094-.054l62.771,58.26c2.251,2.089,2.277,5.501,.058,7.621h0c-2.219,2.119-5.843,2.144-8.094,.054Z"/><path class="cls-1" d="M69.958,11.015L9.903,72.567c-2.154,2.207-5.773,2.375-8.083,.375h0c-2.31-2-2.437-5.411-.284-7.618L61.591,3.772c2.154-2.207,5.773-2.375,8.083-.375h0c2.31,2,2.437,5.411,.284,7.618Z"/></svg>