<?xml version="1.0" encoding="UTF-8"?><svg id="Layer_1" xmlns="http://www.w3.org/2000/svg" viewBox="0 0 75 75"><defs><style>.cls-1{fill:#c1181c;}</style></defs><path class="cls-1" d="M64.686,71.9L2.89,11.5c-2.216-2.166-2.209-5.667,.016-7.82h0c2.225-2.153,5.825-2.142,8.041,.025l61.797,60.4c2.216,2.166,2.209,5.667-.016,7.82h0c-2.225,2.153-5.825,2.142-8.041-.025Z"/><path class="cls-1" d="M70.553,9.528L10.303,72.087c-2.161,2.244-5.757,2.38-8.033,.305h0c-2.276-2.075-2.369-5.576-.209-7.82L62.311,2.014c2.161-2.244,5.757-2.38,8.033-.305h0c2.276,2.075,2.369,5.576,.209,7.82Z"/></svg>