<?xml version="1.0" encoding="UTF-8"?><svg id="Layer_1" xmlns="http://www.w3.org/2000/svg" viewBox="0 0 495 83"><defs><style>.cls-1{fill:#be181c;}</style></defs><g><path class="cls-1" d="M28.386,60.52H.65v-2.724c2.461,0,4.307-.211,5.538-.636,1.23-.423,2.072-1.271,2.522-2.543,.45-1.271,.676-3.147,.676-5.63V11.847c0-2.42-.225-4.222-.676-5.403-.45-1.18-1.292-1.952-2.522-2.316-1.231-.363-3.077-.545-5.538-.545V.86H24.964c5.343,0,9.636,.56,12.878,1.68,3.242,1.121,5.583,2.724,7.024,4.813,1.441,2.088,2.161,4.647,2.161,7.673,0,4.057-1.201,7.098-3.602,9.126-2.402,2.029-5.464,3.557-9.186,4.586v.363c2.581,.424,5.057,1.212,7.429,2.361,2.371,1.15,4.337,2.769,5.899,4.858,1.561,2.088,2.342,4.799,2.342,8.127,0,5.146-1.907,9.112-5.719,11.896-3.813,2.786-9.081,4.177-15.804,4.177ZM17.67,4.674V27.648h6.124c5.462,0,9.215-.953,11.257-2.86,2.04-1.907,3.062-4.918,3.062-9.035,0-3.571-1.126-6.356-3.377-8.354s-6.139-2.997-11.662-2.997c-.841,0-1.727,.016-2.656,.045-.932,.032-1.846,.106-2.747,.227Zm6.484,52.487c1.921,0,3.841-.121,5.764-.363,1.921-.241,3.677-.772,5.268-1.589,1.59-.817,2.866-2.057,3.828-3.723,.96-1.664,1.441-3.95,1.441-6.856,0-3.451-.796-6.13-2.387-8.036-1.591-1.907-3.633-3.238-6.123-3.995-2.492-.756-5.149-1.135-7.97-1.135h-6.304v25.426c1.081,.061,2.161,.122,3.242,.182,1.08,.061,2.161,.091,3.242,.091Z"/><path class="cls-1" d="M67.199,61.156c-3.483,0-6.139-.968-7.97-2.906-1.832-1.937-2.747-4.359-2.747-7.265,0-2.42,.555-4.464,1.666-6.129,1.11-1.664,2.581-3.072,4.413-4.223,1.831-1.149,3.812-2.118,5.944-2.906,2.13-.786,4.217-1.453,6.259-1.998,2.04-.545,3.842-1.059,5.403-1.544v-3.995c0-3.934-.675-6.734-2.026-8.399-1.351-1.665-3.377-2.497-6.078-2.497-2.582,0-4.233,.545-4.953,1.634-.721,1.09-1.081,2.997-1.081,5.721,0,1.393-.346,2.437-1.036,3.133s-1.666,1.044-2.927,1.044c-.9,0-1.756-.347-2.566-1.044-.811-.696-1.216-1.801-1.216-3.315,0-1.694,.644-3.299,1.936-4.813,1.29-1.512,3.121-2.754,5.494-3.723,2.371-.968,5.178-1.453,8.42-1.453,4.922,0,8.404,1.15,10.446,3.451,2.04,2.301,3.062,5.811,3.062,10.534v20.613c0,1.877,.21,3.088,.63,3.632,.419,.544,1.11,.817,2.071,.817,.84,0,1.606-.211,2.297-.636,.689-.423,1.335-.968,1.936-1.635l1.35,1.453c-1.501,2.179-2.927,3.768-4.277,4.767-1.351,.999-3.167,1.499-5.448,1.499-2.102,0-3.467-.604-4.098-1.816-.63-1.21-1.096-2.936-1.396-5.176l-.54-1.09v-15.71c-2.701,.667-5.254,1.453-7.655,2.361-2.402,.908-4.354,2.088-5.854,3.542-1.501,1.453-2.251,3.359-2.251,5.721,0,2.24,.599,4.027,1.801,5.358,1.2,1.332,2.76,1.998,4.683,1.998,1.561,0,3.197-.393,4.908-1.181,1.711-.786,3.377-1.907,4.998-3.359l.72,3.269h-1.081c-1.382,1.212-2.717,2.302-4.007,3.269-1.292,.969-2.672,1.711-4.143,2.225-1.472,.513-3.167,.772-5.088,.772Z"/><path class="cls-1" d="M113.487,81.86c-3.903,0-6.979-.485-9.231-1.453-2.251-.969-3.827-2.225-4.727-3.768-.901-1.544-1.351-3.133-1.351-4.767,0-1.514,.615-3.103,1.846-4.767,1.23-1.666,3.046-3.678,5.449-6.039v-.999l2.701,.545c-1.141,1.937-1.922,3.526-2.341,4.767-.421,1.24-.63,2.375-.63,3.405,0,2.602,1.11,4.57,3.332,5.903,2.22,1.331,5.613,1.998,10.176,1.998,3.542,0,6.408-.454,8.6-1.362,2.191-.908,3.783-2.029,4.773-3.36,.991-1.332,1.486-2.633,1.486-3.904,0-1.635-.526-2.892-1.576-3.769-1.051-.878-2.387-1.498-4.007-1.861-1.621-.364-3.332-.59-5.133-.681-1.801-.091-3.453-.136-4.953-.136-2.702-.061-4.744-.091-6.124-.091s-2.373-.016-2.972-.046c-.6-.031-1.141-.045-1.621-.045l-.9-.454c-.901-.304-1.801-.786-2.702-1.453-.9-.665-1.652-1.467-2.251-2.406-.601-.938-.9-1.921-.9-2.951,0-1.09,.315-2.225,.945-3.405,.63-1.181,1.516-2.361,2.657-3.542,1.139-1.18,2.4-2.316,3.782-3.405v-.817l2.341,1.725c-.301,.304-.661,.849-1.081,1.635-.421,.787-.781,1.62-1.08,2.497-.301,.878-.45,1.62-.45,2.225,0,.908,.315,1.62,.945,2.134,.631,.515,1.711,.894,3.242,1.135,1.531,.243,3.677,.364,6.439,.364,3.782,0,7.189,.181,10.221,.544,3.031,.364,5.417,1.303,7.16,2.815,1.74,1.514,2.611,3.995,2.611,7.447,0,3.026-.736,5.584-2.206,7.673-1.472,2.088-3.422,3.768-5.854,5.039-2.431,1.272-5.104,2.194-8.015,2.77-2.913,.575-5.779,.863-8.6,.863Zm4.143-35.506c-1.562,0-3.017-.15-4.368-.454-1.35-.302-2.656-.665-3.917-1.089l-.99-.908c-1.562-.847-2.897-1.846-4.007-2.996-1.112-1.149-1.967-2.527-2.566-4.132-.601-1.603-.901-3.435-.901-5.494,0-3.026,.69-5.644,2.072-7.855,1.38-2.209,3.301-3.919,5.763-5.131,2.461-1.21,5.282-1.816,8.465-1.816,1.801,0,3.497,.168,5.088,.5,1.59,.333,3.076,.833,4.458,1.498,1.38,.667,2.581,1.453,3.602,2.361v2.361c.66,.908,1.365,2.12,2.116,3.632,.75,1.514,1.126,3.421,1.126,5.721,0,2.786-.675,5.222-2.026,7.31-1.351,2.089-3.212,3.693-5.583,4.813-2.372,1.121-5.148,1.68-8.33,1.68Zm.09-3.178c2.281,0,4.157-.786,5.628-2.361,1.471-1.574,2.206-4.509,2.206-8.808,0-3.692-.781-6.659-2.341-8.899-1.562-2.239-3.783-3.36-6.664-3.36-2.341,0-4.218,.908-5.628,2.724-1.411,1.816-2.117,4.631-2.117,8.445,0,3.875,.75,6.887,2.251,9.035,1.5,2.149,3.722,3.223,6.664,3.223Zm21.073-25.063v4.903l-9.726-.272-3.152-3.905,12.878-.726Z"/><path class="cls-1" d="M166.259,52.348l1.711,1.453c-1.141,1.635-2.206,3.013-3.197,4.132-.99,1.121-2.087,1.983-3.287,2.588-1.202,.604-2.762,.908-4.683,.908-3.003,0-5.194-.894-6.574-2.679-1.382-1.785-2.072-4.706-2.072-8.763V21.837h-4.953v-2.089c2.101-1.331,3.917-3.133,5.448-5.403,1.531-2.27,3.107-5.342,4.728-9.217h2.251v12.894h10.176v3.814h-10.176v25.608c0,3.209,.284,5.448,.855,6.72,.57,1.271,1.725,1.907,3.467,1.907,1.441,0,2.566-.302,3.377-.908,.811-.604,1.786-1.544,2.927-2.815Z"/></g><g><path class="cls-1" d="M191.918,58.038h-10.787v-1.059c.957,0,1.675-.082,2.154-.247,.478-.165,.805-.495,.981-.989,.175-.495,.262-1.224,.262-2.189v-14.443c0-.941-.087-1.643-.262-2.101-.175-.459-.502-.76-.981-.901-.479-.141-1.197-.212-2.154-.212v-1.06h9.456c2.078,0,3.747,.218,5.008,.653,1.261,.436,2.171,1.06,2.732,1.872,.56,.812,.841,1.807,.841,2.984,0,1.578-.468,2.761-1.401,3.549-.934,.789-2.124,1.383-3.572,1.783v.141c1.004,.165,1.967,.471,2.889,.918,.922,.448,1.687,1.077,2.294,1.889,.607,.812,.91,1.866,.91,3.161,0,2.001-.741,3.543-2.224,4.626-1.483,1.083-3.532,1.624-6.146,1.624Zm-4.168-21.718v8.934h2.381c2.124,0,3.584-.371,4.378-1.112,.793-.741,1.191-1.913,1.191-3.514,0-1.389-.438-2.472-1.313-3.249s-2.387-1.165-4.535-1.165c-.327,0-.671,.006-1.033,.018s-.718,.041-1.068,.088Zm2.522,20.411c.747,0,1.494-.047,2.241-.141,.747-.094,1.43-.3,2.049-.618,.618-.318,1.114-.8,1.488-1.448,.373-.647,.56-1.536,.56-2.666,0-1.342-.31-2.383-.928-3.125-.619-.741-1.413-1.259-2.382-1.554-.969-.294-2.002-.441-3.099-.441h-2.452v9.888c.42,.024,.84,.047,1.261,.07,.421,.024,.841,.035,1.261,.035Z"/><path class="cls-1" d="M210.549,58.391c-2.451,0-4.372-.771-5.761-2.313-1.39-1.542-2.084-3.737-2.084-6.586,0-1.718,.327-3.219,.981-4.502,.653-1.283,1.57-2.283,2.749-3.002,1.179-.718,2.55-1.077,4.115-1.077,2.405,0,4.302,.754,5.691,2.26s2.084,3.566,2.084,6.18c0,1.978-.333,3.637-.998,4.979-.665,1.342-1.582,2.354-2.749,3.037-1.168,.683-2.51,1.024-4.028,1.024Zm.14-1.412c.957,0,1.763-.224,2.417-.671,.653-.447,1.15-1.212,1.488-2.296,.339-1.082,.508-2.578,.508-4.485,0-2.166-.391-3.92-1.173-5.262-.783-1.342-1.956-2.013-3.52-2.013-1.331,0-2.405,.565-3.222,1.695-.817,1.13-1.226,2.825-1.226,5.085,0,2.802,.414,4.833,1.243,6.091,.829,1.26,1.99,1.878,3.485,1.854Z"/><path class="cls-1" d="M227.289,58.391c-1.448,0-2.574-.477-3.379-1.43-.806-.954-1.208-2.631-1.208-5.033v-7.169c0-.636-.064-1.1-.192-1.395-.129-.294-.368-.482-.718-.565-.35-.082-.84-.124-1.471-.124v-.989l4.517-.53h.77v10.312c0,1.201,.134,2.136,.403,2.807,.268,.671,.642,1.148,1.12,1.43,.478,.283,1.021,.424,1.629,.424,.887,0,1.651-.2,2.294-.6,.642-.4,1.313-.906,2.013-1.519v-9.287c0-.636-.082-1.095-.245-1.377-.163-.282-.449-.465-.858-.547-.408-.082-.986-.124-1.733-.124v-.989l4.903-.53h.841v12.96c0,1.036,.14,1.683,.42,1.942,.28,.259,.84,.388,1.681,.388h.35v.954l-4.448,.812h-.77v-2.719h-.175c-.607,.612-1.208,1.136-1.803,1.572-.596,.436-1.214,.765-1.856,.989-.642,.223-1.337,.336-2.084,.336Z"/><path class="cls-1" d="M248.581,58.038h-8.055v-1.024c.77,0,1.331-.076,1.681-.23,.35-.153,.566-.411,.648-.777,.082-.365,.123-.876,.123-1.536v-17.727c0-.73-.135-1.165-.403-1.307-.269-.141-.625-.212-1.069-.212-.303,0-.677,.024-1.12,.07v-.953l4.622-1.236h.876v21.365c0,.683,.053,1.207,.158,1.572,.105,.366,.344,.618,.718,.759,.373,.141,.981,.212,1.821,.212v1.024Z"/><path class="cls-1" d="M254.885,58.285c-1.354,0-2.388-.376-3.1-1.13-.712-.753-1.068-1.695-1.068-2.825,0-.941,.215-1.736,.648-2.384,.432-.647,1.004-1.195,1.716-1.642,.712-.447,1.482-.824,2.311-1.13,.829-.305,1.64-.565,2.434-.777,.793-.212,1.494-.411,2.101-.6v-1.554c0-1.53-.263-2.619-.788-3.267-.525-.647-1.313-.971-2.364-.971-1.004,0-1.646,.212-1.926,.636-.28,.424-.42,1.165-.42,2.224,0,.542-.135,.948-.403,1.218s-.648,.406-1.138,.406c-.35,0-.683-.135-.998-.406-.315-.27-.473-.7-.473-1.289,0-.659,.251-1.283,.753-1.872,.502-.588,1.214-1.071,2.136-1.448,.922-.376,2.014-.565,3.274-.565,1.914,0,3.269,.448,4.063,1.342,.793,.895,1.191,2.26,1.191,4.096v8.016c0,.73,.082,1.201,.245,1.412,.163,.212,.432,.318,.806,.318,.326,0,.624-.082,.893-.247,.268-.165,.519-.376,.753-.636l.526,.565c-.584,.848-1.138,1.466-1.664,1.854-.525,.388-1.232,.582-2.119,.582-.817,0-1.348-.235-1.593-.706s-.427-1.141-.543-2.013l-.21-.424v-6.109c-1.051,.26-2.043,.565-2.977,.918-.934,.353-1.693,.812-2.276,1.377-.584,.565-.876,1.307-.876,2.225,0,.872,.233,1.566,.7,2.083,.467,.518,1.074,.777,1.821,.777,.607,0,1.243-.153,1.908-.459s1.313-.742,1.944-1.307l.28,1.272h-.42c-.537,.471-1.057,.895-1.559,1.271-.502,.377-1.039,.666-1.611,.865-.573,.2-1.232,.301-1.979,.301Z"/><path class="cls-1" d="M275.337,58.038h-8.019v-.989c.793,0,1.36-.076,1.698-.23,.338-.153,.548-.418,.63-.795,.082-.376,.123-.894,.123-1.554v-9.923c0-.636-.128-1.053-.385-1.253-.257-.2-.619-.301-1.086-.301-.304,0-.619,.024-.946,.071v-1.024l4.448-1.024h.805l-.035,3.249,.105,.741v9.464c0,.66,.046,1.177,.14,1.554,.093,.377,.326,.642,.7,.795,.373,.153,.981,.23,1.821,.23v.989Zm10.296,0h-8.09v-.989c.841,0,1.441-.076,1.804-.23,.362-.153,.583-.418,.665-.795,.082-.376,.123-.894,.123-1.554v-6.392c0-1.412-.158-2.472-.473-3.178s-.718-1.171-1.208-1.395-1.004-.336-1.541-.336c-.677,0-1.284,.135-1.821,.406s-1.022,.595-1.454,.971c-.432,.377-.835,.73-1.208,1.06l-.245-1.731h.525c.957-.847,1.862-1.554,2.715-2.118,.852-.565,1.826-.848,2.924-.848,1.587,0,2.767,.542,3.537,1.624,.77,1.083,1.155,2.637,1.155,4.662v7.275c0,.66,.053,1.177,.158,1.554,.105,.377,.344,.642,.718,.795,.373,.153,.945,.23,1.716,.23v.989Z"/><path class="cls-1" d="M293.057,66.337c-1.518,0-2.714-.189-3.59-.565-.876-.377-1.489-.865-1.839-1.466-.35-.6-.525-1.218-.525-1.854,0-.589,.239-1.207,.718-1.854,.478-.648,1.185-1.43,2.118-2.349v-.388l1.051,.212c-.444,.753-.748,1.371-.911,1.854-.164,.482-.245,.924-.245,1.324,0,1.012,.432,1.777,1.296,2.295,.864,.518,2.183,.777,3.957,.777,1.377,0,2.492-.176,3.345-.53,.852-.353,1.471-.789,1.856-1.307,.385-.518,.578-1.024,.578-1.519,0-.636-.205-1.124-.613-1.465-.409-.342-.928-.583-1.559-.724-.63-.141-1.296-.23-1.996-.265-.701-.035-1.343-.053-1.926-.053-1.05-.024-1.844-.035-2.381-.035s-.922-.006-1.155-.017c-.234-.012-.444-.018-.631-.018l-.35-.177c-.35-.118-.7-.305-1.05-.565s-.642-.571-.876-.936c-.234-.365-.35-.747-.35-1.148,0-.424,.123-.865,.368-1.324,.245-.459,.589-.918,1.033-1.377s.934-.901,1.471-1.324v-.318l.911,.671c-.117,.118-.257,.33-.42,.636-.164,.306-.304,.63-.421,.971-.117,.341-.175,.63-.175,.865,0,.353,.123,.63,.368,.83,.245,.2,.665,.347,1.261,.441,.596,.094,1.43,.141,2.504,.141,1.471,0,2.796,.071,3.975,.212,1.178,.141,2.107,.506,2.784,1.095,.677,.589,1.016,1.554,1.016,2.895,0,1.177-.286,2.172-.858,2.984-.572,.812-1.331,1.466-2.276,1.96-.946,.494-1.985,.853-3.117,1.077-1.133,.223-2.247,.336-3.344,.336Zm1.611-13.808c-.607,0-1.173-.059-1.698-.176-.526-.118-1.033-.259-1.523-.424l-.385-.353c-.607-.33-1.127-.718-1.559-1.166-.432-.447-.765-.983-.998-1.607s-.35-1.336-.35-2.137c0-1.177,.268-2.195,.805-3.055,.537-.859,1.284-1.524,2.242-1.995,.957-.471,2.054-.706,3.292-.706,.7,0,1.36,.065,1.979,.194,.618,.13,1.196,.324,1.733,.583,.537,.26,1.004,.565,1.401,.918v.918c.257,.353,.531,.824,.823,1.412,.291,.589,.438,1.33,.438,2.225,0,1.083-.263,2.03-.788,2.843-.525,.812-1.249,1.436-2.171,1.872-.923,.436-2.003,.653-3.24,.653Zm.035-1.236c.887,0,1.616-.305,2.189-.918,.572-.612,.858-1.753,.858-3.425,0-1.436-.304-2.589-.911-3.46-.607-.871-1.471-1.307-2.591-1.307-.911,0-1.641,.353-2.189,1.059-.549,.706-.823,1.801-.823,3.284,0,1.507,.291,2.679,.876,3.514,.583,.836,1.447,1.254,2.591,1.254Zm8.195-9.747v1.907l-3.782-.106-1.226-1.518,5.008-.283Z"/><path class="cls-1" d="M312.143,58.391c-1.401,0-2.668-.336-3.8-1.007-1.133-.671-2.026-1.66-2.679-2.966-.654-1.307-.981-2.901-.981-4.785,0-1.978,.333-3.607,.998-4.891,.665-1.283,1.559-2.242,2.679-2.878,1.12-.636,2.358-.954,3.712-.954,1.914,0,3.455,.671,4.622,2.013,1.167,1.342,1.798,3.249,1.891,5.721h-11.382l-.035-1.307h8.125c-.023-.871-.175-1.689-.455-2.454-.28-.765-.689-1.383-1.225-1.854-.537-.47-1.226-.706-2.067-.706-1.354,0-2.37,.536-3.047,1.607-.677,1.072-1.015,2.584-1.015,4.538,0,1.624,.257,2.978,.77,4.061s1.191,1.889,2.032,2.419,1.739,.795,2.696,.795,1.733-.129,2.329-.389c.596-.259,1.103-.594,1.523-1.007,.42-.411,.817-.865,1.191-1.359l.665,.494c-.303,.66-.654,1.289-1.05,1.889-.397,.601-.847,1.125-1.348,1.572-.502,.447-1.091,.801-1.769,1.059-.677,.259-1.471,.389-2.381,.389Z"/><path class="cls-1" d="M329.514,58.038h-8.755v-1.024c.77,0,1.336-.065,1.698-.194,.362-.129,.596-.365,.701-.706,.105-.341,.157-.841,.157-1.501v-9.711c0-.636-.052-1.112-.157-1.43s-.473-.477-1.103-.477c-.35,0-.712,.024-1.086,.071v-.989l4.342-1.06h.84v3.637h.105c.607-.871,1.144-1.589,1.611-2.154,.467-.565,.928-.989,1.383-1.272,.455-.282,.963-.424,1.523-.424,.677,0,1.185,.177,1.523,.53,.338,.353,.508,.836,.508,1.448,0,.66-.158,1.142-.473,1.448-.315,.306-.671,.459-1.068,.459-.374,0-.706-.1-.998-.3-.292-.2-.543-.4-.753-.601-.21-.2-.385-.3-.525-.3-.398,0-.853,.306-1.366,.918-.514,.612-.981,1.271-1.401,1.978v8.052c0,.73,.093,1.283,.28,1.66,.187,.377,.519,.624,.998,.741,.478,.118,1.15,.176,2.014,.176v1.024Z"/><path class="cls-1" d="M342.05,58.038h-7.88v-.989c.793,0,1.36-.076,1.698-.23,.338-.153,.548-.418,.63-.795,.082-.376,.123-.894,.123-1.554v-9.852c0-.753-.128-1.218-.385-1.395-.257-.176-.642-.265-1.156-.265-.234,0-.525,.024-.876,.07v-1.024l4.413-.989h.911v13.455c0,.683,.046,1.213,.14,1.589,.093,.377,.321,.636,.683,.777s.928,.212,1.699,.212v.989Zm-3.922-19.776c-.584,0-1.063-.2-1.436-.6-.374-.4-.56-.871-.56-1.413s.18-1.006,.543-1.395c.362-.388,.846-.583,1.454-.583s1.091,.195,1.453,.583c.362,.389,.543,.854,.543,1.395s-.181,1.013-.543,1.413c-.362,.401-.846,.6-1.453,.6Z"/><path class="cls-1" d="M351.681,58.391c-1.401,0-2.668-.336-3.8-1.007-1.133-.671-2.026-1.66-2.679-2.966-.654-1.307-.981-2.901-.981-4.785,0-1.978,.333-3.607,.998-4.891,.665-1.283,1.559-2.242,2.679-2.878,1.12-.636,2.358-.954,3.712-.954,1.914,0,3.455,.671,4.622,2.013,1.167,1.342,1.798,3.249,1.891,5.721h-11.382l-.035-1.307h8.125c-.023-.871-.175-1.689-.455-2.454-.28-.765-.689-1.383-1.225-1.854-.537-.47-1.226-.706-2.067-.706-1.354,0-2.37,.536-3.047,1.607-.677,1.072-1.015,2.584-1.015,4.538,0,1.624,.257,2.978,.77,4.061s1.191,1.889,2.032,2.419,1.739,.795,2.696,.795,1.733-.129,2.329-.389c.596-.259,1.103-.594,1.523-1.007,.42-.411,.817-.865,1.191-1.359l.665,.494c-.303,.66-.654,1.289-1.05,1.889-.397,.601-.847,1.125-1.348,1.572-.502,.447-1.091,.801-1.769,1.059-.677,.259-1.471,.389-2.381,.389Z"/><path class="cls-1" d="M374.654,58.533c-1.961,0-3.467-.471-4.518-1.413-1.05-.941-1.576-2.307-1.576-4.096,0-1.106,.228-2.107,.683-3.001s1.185-1.754,2.189-2.578c1.004-.824,2.311-1.683,3.922-2.578l.526,1.095c-1.448,.872-2.493,1.79-3.135,2.754-.642,.966-.963,2.108-.963,3.425,0,.989,.163,1.796,.49,2.419s.8,1.083,1.419,1.377c.618,.295,1.36,.441,2.224,.441,.887,0,1.722-.135,2.504-.406,.782-.27,1.687-.888,2.715-1.854l.805,.883c-.84,.871-1.634,1.566-2.381,2.083-.748,.518-1.512,.889-2.294,1.112-.783,.223-1.652,.336-2.609,.336Zm12.573,0c-.77,0-1.442-.124-2.014-.371s-1.155-.636-1.751-1.166c-.595-.53-1.313-1.23-2.154-2.101-.491-.541-1.074-1.289-1.751-2.242-.678-.954-1.395-2.054-2.154-3.302-.759-1.248-1.5-2.543-2.224-3.885-.724-1.365-1.249-2.49-1.576-3.373s-.49-1.83-.49-2.843c0-1.365,.502-2.472,1.506-3.32,1.004-.847,2.334-1.271,3.993-1.271,1.283,0,2.381,.353,3.292,1.059,.911,.706,1.366,1.778,1.366,3.214,0,1.272-.42,2.366-1.261,3.284-.841,.918-2.311,1.837-4.413,2.754l-.525-.953c1.097-.518,1.949-1.036,2.556-1.554,.607-.517,1.033-1.077,1.279-1.678,.245-.6,.367-1.242,.367-1.924,0-.895-.234-1.642-.7-2.243-.468-.6-1.144-.901-2.032-.901-.864,0-1.547,.26-2.049,.777-.502,.518-.753,1.201-.753,2.048,0,.683,.163,1.495,.49,2.437s.765,1.942,1.313,3.001c.549,1.06,1.156,2.125,1.821,3.196,.665,1.072,1.336,2.078,2.013,3.02,.677,.942,1.307,1.754,1.891,2.437,.957,1.083,1.815,1.942,2.574,2.578,.759,.636,1.64,.953,2.644,.953,.724,0,1.36-.153,1.909-.459,.548-.305,1.056-.812,1.523-1.518l.596,.388c-.304,.848-.724,1.566-1.261,2.154-.537,.589-1.15,1.036-1.839,1.342-.689,.305-1.418,.459-2.189,.459Zm-3.817-5.085l-.806-.777c.747-1.153,1.342-2.119,1.786-2.896,.443-.777,.764-1.448,.963-2.013,.198-.565,.298-1.106,.298-1.624s-.157-.888-.472-1.112c-.316-.224-.882-.336-1.699-.336v-1.095h7.705v1.095c-.864,0-1.536,.141-2.014,.424-.479,.283-.917,.777-1.313,1.483-.49,.847-.934,1.601-1.331,2.26-.397,.66-.835,1.342-1.313,2.048-.479,.706-1.08,1.554-1.803,2.543Z"/><path class="cls-1" d="M413.561,58.038h-10.787v-1.059c.957,0,1.675-.082,2.154-.247,.478-.165,.805-.495,.981-.989,.175-.495,.262-1.224,.262-2.189v-14.443c0-.941-.087-1.643-.262-2.101-.175-.459-.502-.76-.981-.901-.479-.141-1.197-.212-2.154-.212v-1.06h9.456c2.078,0,3.747,.218,5.008,.653,1.261,.436,2.171,1.06,2.732,1.872,.56,.812,.841,1.807,.841,2.984,0,1.578-.468,2.761-1.401,3.549-.934,.789-2.124,1.383-3.572,1.783v.141c1.004,.165,1.967,.471,2.889,.918,.922,.448,1.687,1.077,2.294,1.889,.607,.812,.91,1.866,.91,3.161,0,2.001-.741,3.543-2.224,4.626-1.483,1.083-3.532,1.624-6.146,1.624Zm-4.168-21.718v8.934h2.381c2.124,0,3.584-.371,4.378-1.112,.793-.741,1.191-1.913,1.191-3.514,0-1.389-.438-2.472-1.313-3.249s-2.387-1.165-4.535-1.165c-.327,0-.671,.006-1.033,.018s-.718,.041-1.068,.088Zm2.522,20.411c.747,0,1.494-.047,2.241-.141,.747-.094,1.43-.3,2.049-.618,.618-.318,1.114-.8,1.488-1.448,.373-.647,.56-1.536,.56-2.666,0-1.342-.31-2.383-.928-3.125-.619-.741-1.413-1.259-2.382-1.554-.969-.294-2.002-.441-3.099-.441h-2.452v9.888c.42,.024,.84,.047,1.261,.07,.421,.024,.841,.035,1.261,.035Z"/><path class="cls-1" d="M428.656,58.285c-1.354,0-2.388-.376-3.1-1.13-.712-.753-1.068-1.695-1.068-2.825,0-.941,.215-1.736,.648-2.384,.432-.647,1.004-1.195,1.716-1.642,.712-.447,1.482-.824,2.311-1.13,.829-.305,1.64-.565,2.434-.777,.793-.212,1.494-.411,2.101-.6v-1.554c0-1.53-.263-2.619-.788-3.267-.525-.647-1.313-.971-2.364-.971-1.004,0-1.646,.212-1.926,.636-.28,.424-.42,1.165-.42,2.224,0,.542-.135,.948-.403,1.218s-.648,.406-1.138,.406c-.35,0-.683-.135-.998-.406-.315-.27-.473-.7-.473-1.289,0-.659,.251-1.283,.753-1.872,.502-.588,1.214-1.071,2.136-1.448,.922-.376,2.014-.565,3.274-.565,1.914,0,3.269,.448,4.063,1.342,.793,.895,1.191,2.26,1.191,4.096v8.016c0,.73,.082,1.201,.245,1.412,.163,.212,.432,.318,.806,.318,.326,0,.624-.082,.893-.247,.268-.165,.519-.376,.753-.636l.526,.565c-.584,.848-1.138,1.466-1.664,1.854-.525,.388-1.232,.582-2.119,.582-.817,0-1.348-.235-1.593-.706s-.427-1.141-.543-2.013l-.21-.424v-6.109c-1.051,.26-2.043,.565-2.977,.918-.934,.353-1.693,.812-2.276,1.377-.584,.565-.876,1.307-.876,2.225,0,.872,.233,1.566,.7,2.083,.467,.518,1.074,.777,1.821,.777,.607,0,1.243-.153,1.908-.459s1.313-.742,1.944-1.307l.28,1.272h-.42c-.537,.471-1.057,.895-1.559,1.271-.502,.377-1.039,.666-1.611,.865-.573,.2-1.232,.301-1.979,.301Z"/><path class="cls-1" d="M446.656,66.337c-1.518,0-2.714-.189-3.59-.565-.876-.377-1.489-.865-1.839-1.466-.35-.6-.525-1.218-.525-1.854,0-.589,.239-1.207,.718-1.854,.478-.648,1.185-1.43,2.118-2.349v-.388l1.051,.212c-.444,.753-.748,1.371-.911,1.854-.164,.482-.245,.924-.245,1.324,0,1.012,.432,1.777,1.296,2.295,.864,.518,2.183,.777,3.957,.777,1.377,0,2.492-.176,3.345-.53,.852-.353,1.471-.789,1.856-1.307,.385-.518,.578-1.024,.578-1.519,0-.636-.205-1.124-.613-1.465-.409-.342-.928-.583-1.559-.724-.63-.141-1.296-.23-1.996-.265-.701-.035-1.343-.053-1.926-.053-1.05-.024-1.844-.035-2.381-.035s-.922-.006-1.155-.017c-.234-.012-.444-.018-.631-.018l-.35-.177c-.35-.118-.7-.305-1.05-.565s-.642-.571-.876-.936c-.234-.365-.35-.747-.35-1.148,0-.424,.123-.865,.368-1.324,.245-.459,.589-.918,1.033-1.377s.934-.901,1.471-1.324v-.318l.911,.671c-.117,.118-.257,.33-.42,.636-.164,.306-.304,.63-.421,.971-.117,.341-.175,.63-.175,.865,0,.353,.123,.63,.368,.83,.245,.2,.665,.347,1.261,.441,.596,.094,1.43,.141,2.504,.141,1.471,0,2.796,.071,3.975,.212,1.178,.141,2.107,.506,2.784,1.095,.677,.589,1.016,1.554,1.016,2.895,0,1.177-.286,2.172-.858,2.984-.572,.812-1.331,1.466-2.276,1.96-.946,.494-1.985,.853-3.117,1.077-1.133,.223-2.247,.336-3.344,.336Zm1.611-13.808c-.607,0-1.173-.059-1.698-.176-.526-.118-1.033-.259-1.523-.424l-.385-.353c-.607-.33-1.127-.718-1.559-1.166-.432-.447-.765-.983-.998-1.607s-.35-1.336-.35-2.137c0-1.177,.268-2.195,.805-3.055,.537-.859,1.284-1.524,2.242-1.995,.957-.471,2.054-.706,3.292-.706,.7,0,1.36,.065,1.979,.194,.618,.13,1.196,.324,1.733,.583,.537,.26,1.004,.565,1.401,.918v.918c.257,.353,.531,.824,.823,1.412,.291,.589,.438,1.33,.438,2.225,0,1.083-.263,2.03-.788,2.843-.525,.812-1.249,1.436-2.171,1.872-.923,.436-2.003,.653-3.24,.653Zm.035-1.236c.887,0,1.616-.305,2.189-.918,.572-.612,.858-1.753,.858-3.425,0-1.436-.304-2.589-.911-3.46-.607-.871-1.471-1.307-2.591-1.307-.911,0-1.641,.353-2.189,1.059-.549,.706-.823,1.801-.823,3.284,0,1.507,.291,2.679,.876,3.514,.583,.836,1.447,1.254,2.591,1.254Zm8.195-9.747v1.907l-3.782-.106-1.226-1.518,5.008-.283Z"/><path class="cls-1" d="M465.742,58.391c-1.401,0-2.668-.336-3.8-1.007-1.133-.671-2.026-1.66-2.679-2.966-.654-1.307-.981-2.901-.981-4.785,0-1.978,.333-3.607,.998-4.891,.665-1.283,1.559-2.242,2.679-2.878,1.12-.636,2.358-.954,3.712-.954,1.914,0,3.455,.671,4.622,2.013,1.167,1.342,1.798,3.249,1.891,5.721h-11.382l-.035-1.307h8.125c-.023-.871-.175-1.689-.455-2.454-.28-.765-.689-1.383-1.225-1.854-.537-.47-1.226-.706-2.067-.706-1.354,0-2.37,.536-3.047,1.607-.677,1.072-1.015,2.584-1.015,4.538,0,1.624,.257,2.978,.77,4.061s1.191,1.889,2.032,2.419,1.739,.795,2.696,.795,1.733-.129,2.329-.389c.596-.259,1.103-.594,1.523-1.007,.42-.411,.817-.865,1.191-1.359l.665,.494c-.303,.66-.654,1.289-1.05,1.889-.397,.601-.847,1.125-1.348,1.572-.502,.447-1.091,.801-1.769,1.059-.677,.259-1.471,.389-2.381,.389Z"/><path class="cls-1" d="M483.113,58.038h-8.755v-1.024c.77,0,1.336-.065,1.698-.194,.362-.129,.596-.365,.701-.706,.105-.341,.157-.841,.157-1.501v-9.711c0-.636-.052-1.112-.157-1.43s-.473-.477-1.103-.477c-.35,0-.712,.024-1.086,.071v-.989l4.342-1.06h.84v3.637h.105c.607-.871,1.144-1.589,1.611-2.154,.467-.565,.928-.989,1.383-1.272,.455-.282,.963-.424,1.523-.424,.677,0,1.185,.177,1.523,.53,.338,.353,.508,.836,.508,1.448,0,.66-.158,1.142-.473,1.448-.315,.306-.671,.459-1.068,.459-.374,0-.706-.1-.998-.3-.292-.2-.543-.4-.753-.601-.21-.2-.385-.3-.525-.3-.398,0-.853,.306-1.366,.918-.514,.612-.981,1.271-1.401,1.978v8.052c0,.73,.093,1.283,.28,1.66,.187,.377,.519,.624,.998,.741,.478,.118,1.15,.176,2.014,.176v1.024Z"/><path class="cls-1" d="M495.65,58.038h-7.88v-.989c.793,0,1.36-.076,1.698-.23,.338-.153,.548-.418,.63-.795,.082-.376,.123-.894,.123-1.554v-9.852c0-.753-.128-1.218-.385-1.395-.257-.176-.642-.265-1.156-.265-.234,0-.525,.024-.876,.07v-1.024l4.413-.989h.911v13.455c0,.683,.046,1.213,.14,1.589,.093,.377,.321,.636,.683,.777s.928,.212,1.699,.212v.989Zm-3.922-19.776c-.584,0-1.063-.2-1.436-.6-.374-.4-.56-.871-.56-1.413s.18-1.006,.543-1.395c.362-.388,.846-.583,1.454-.583s1.091,.195,1.453,.583c.362,.389,.543,.854,.543,1.395s-.181,1.013-.543,1.413c-.362,.401-.846,.6-1.453,.6Z"/></g></svg>